<svg xmlns="http://www.w3.org/2000/svg" xml:space="preserve" width="120" height="120" style="shape-rendering:geometricPrecision;text-rendering:geometricPrecision;image-rendering:optimizeQuality;fill-rule:evenodd;clip-rule:evenodd">
  <path d="M0 0h120v84h-19V32c0-3-2-8-4-11-2-2-4-2-7-2-2 0-4 1-6 2-1 1-3 3-4 5L59 66 38 26c-1-2-3-4-4-5s-3-2-6-2-5 1-7 2c-2 2-2 4-2 7v63c0 3 1 5 2 7 2 2 4 3 7 3s5-1 7-3c1-2 2-4 2-7V56l15 27c1 2 2 3 3 4s3 1 4 1c2 0 3 0 4-1s2-2 3-4l15-27v34c0 3 1 6 3 8s4 3 7 3h29v18H0V-1z" style="fill:#00918a"/>
</svg>