<?xml version="1.0" encoding="iso-8859-1"?>
<!-- Generator: Adobe Illustrator 25.4.1, SVG Export Plug-In . SVG Version: 6.00 Build 0)  -->
<svg version="1.1" id="&#x421;&#x43B;&#x43E;&#x439;_1"
	 xmlns="http://www.w3.org/2000/svg" xmlns:xlink="http://www.w3.org/1999/xlink" x="0px" y="0px" viewBox="0 0 40 40"
	 style="enable-background:new 0 0 40 40;" xml:space="preserve">
<path style="fill:#FFFFFF;" d="M33.5,5.07h-27c-3.028,0.006-5.48,2.462-5.48,5.49v18.88c0,3.028,2.452,5.484,5.48,5.49h27
	c3.028-0.006,5.48-2.462,5.48-5.49V10.56C38.98,7.532,36.528,5.076,33.5,5.07z M33.5,7.7c0.219-0.002,0.437,0.021,0.65,0.07
	L22.74,20.71c-1.336,1.524-3.655,1.677-5.179,0.341c-0.121-0.106-0.235-0.22-0.341-0.341L5.81,7.77
	C6.023,7.721,6.241,7.698,6.46,7.7C6.46,7.7,33.5,7.7,33.5,7.7z M36.36,29.44c-0.005,1.577-1.283,2.855-2.86,2.86h-27
	c-1.577-0.005-2.855-1.283-2.86-2.86V10.56c0.002-0.374,0.076-0.744,0.22-1.09l11.43,13c2.315,2.612,6.309,2.853,8.922,0.538
	c0.19-0.168,0.37-0.348,0.538-0.538l11.43-13c0.144,0.346,0.218,0.716,0.22,1.09L36.36,29.44z"/>
<rect style="fill:none;" width="40" height="40"/>
</svg>
