<svg xmlns="http://www.w3.org/2000/svg" viewBox="0 0 40 40"><defs><style>.cls-1{fill:#fff;}.cls-2{fill:none;}</style></defs><g id="Слой_2" data-name="Слой 2"><g id="Слой_1-2" data-name="Слой 1"><path class="cls-1" d="M29.37,9.64H10.63a3.81,3.81,0,0,0-3.8,3.81v13.1a3.81,3.81,0,0,0,3.8,3.81H29.37a3.81,3.81,0,0,0,3.8-3.81V13.45A3.81,3.81,0,0,0,29.37,9.64Zm0,1.83a1.73,1.73,0,0,1,.45,0l-7.92,9a2.54,2.54,0,0,1-3.59.24,1.36,1.36,0,0,1-.24-.24l-7.91-9a1.64,1.64,0,0,1,.45,0Zm2,15.08a2,2,0,0,1-2,2H10.63a2,2,0,0,1-2-2V13.45a1.93,1.93,0,0,1,.15-.75l7.93,9a4.38,4.38,0,0,0,6.19.38,4.54,4.54,0,0,0,.38-.38l7.92-9a1.94,1.94,0,0,1,.16.75Z"/><rect class="cls-2" width="40" height="40"/></g></g></svg>