<svg xmlns="http://www.w3.org/2000/svg" viewBox="0 0 40 40"><defs><style>.cls-1{fill:none;}.cls-2{fill:#fff;}</style></defs><g id="Слой_2" data-name="Слой 2"><g id="Слой_1-2" data-name="Слой 1"><rect class="cls-1" width="40" height="40"/><path class="cls-2" d="M6.72,10h27a1,1,0,0,1,1,1v1a1,1,0,0,1-1,1h-27a1,1,0,0,1-1-1V11A1,1,0,0,1,6.72,10Z"/><path class="cls-2" d="M6.5,18.5h27a1,1,0,0,1,1,1v1a1,1,0,0,1-1,1H6.5a1,1,0,0,1-1-1v-1A1,1,0,0,1,6.5,18.5Z"/><path class="cls-2" d="M6.28,27h27a1,1,0,0,1,1,1v1a1,1,0,0,1-1,1h-27a1,1,0,0,1-1-1V28A1,1,0,0,1,6.28,27Z"/></g></g></svg>