<?xml version="1.0" encoding="iso-8859-1"?>
<!-- Generator: Adobe Illustrator 25.4.1, SVG Export Plug-In . SVG Version: 6.00 Build 0)  -->
<svg version="1.1" id="&#x421;&#x43B;&#x43E;&#x439;_1"
	 xmlns="http://www.w3.org/2000/svg" xmlns:xlink="http://www.w3.org/1999/xlink" x="0px" y="0px" viewBox="0 0 40 40"
	 style="enable-background:new 0 0 40 40;" xml:space="preserve">
<path style="fill:#FFFFFF;" d="M20.04,38.861c-0.378,0.011-0.743-0.142-1-0.42c-0.56-0.6-13.7-14.84-13.7-22.64
	C5.339,7.705,11.901,1.14,19.997,1.138S34.659,7.699,34.66,15.796v0.005c0,7.8-13.14,22-13.7,22.64
	C20.722,38.699,20.391,38.85,20.04,38.861z M20.04,3.761c-6.616,0.027-11.973,5.384-12,12c0,5.18,8,15.2,12,19.8
	c4.08-4.6,12-14.62,12-19.8C32.013,9.145,26.656,3.788,20.04,3.761z"/>
<path style="fill:#FFFFFF;" d="M20.04,21.761c-3.645,0-6.6-2.955-6.6-6.6s2.955-6.6,6.6-6.6s6.6,2.955,6.6,6.6
	C26.634,18.804,23.683,21.755,20.04,21.761z M20.04,11.181c-2.209,0-4,1.791-4,4s1.791,4,4,4s4-1.791,4-4
	S22.249,11.181,20.04,11.181z"/>
<rect style="fill:none;" width="40" height="40"/>
</svg>
