<svg xmlns="http://www.w3.org/2000/svg" viewBox="0 0 40 40"><defs><style>.cls-1{fill:#fff;}.cls-2{fill:none;}</style></defs><g id="Слой_2" data-name="Слой 2"><g id="Слой_1-2" data-name="Слой 1"><path class="cls-1" d="M25.45,6.5H14.55a4,4,0,0,0-4,4v19a4,4,0,0,0,4,4h10.9a4,4,0,0,0,4-4v-19a4,4,0,0,0-4-4h0Zm2.16,23a2.16,2.16,0,0,1-2.16,2.15H14.55a2.16,2.16,0,0,1-2.16-2.15v-19a2.16,2.16,0,0,1,2.16-2.15h10.9a2.16,2.16,0,0,1,2.16,2.15Z"/><path class="cls-1" d="M20,28.38a1.1,1.1,0,1,0,1.09,1.11v0A1.09,1.09,0,0,0,20,28.38ZM17.54,9.81h4.92a.7.7,0,0,1,.71.7v.71a.71.71,0,0,1-.71.7H17.54a.71.71,0,0,1-.71-.7v-.71A.7.7,0,0,1,17.54,9.81Z"/><rect class="cls-2" width="40" height="40"/></g></g></svg>