<?xml version="1.0" encoding="iso-8859-1"?>
<!-- Generator: Adobe Illustrator 25.4.1, SVG Export Plug-In . SVG Version: 6.00 Build 0)  -->
<svg version="1.1" id="&#x421;&#x43B;&#x43E;&#x439;_1"
	 xmlns="http://www.w3.org/2000/svg" xmlns:xlink="http://www.w3.org/1999/xlink" x="0px" y="0px" viewBox="0 0 40 40"
	 style="enable-background:new 0 0 40 40;" xml:space="preserve">
<rect style="fill:none;" width="40" height="40"/>
<path style="fill:#FFFFFF;" d="M27.632,0.82h-15.5c-3.139,0-5.684,2.541-5.69,5.68v27c0.006,3.139,2.551,5.68,5.69,5.68h15.5
	c3.139,0,5.684-2.541,5.69-5.68V6.52c0.006-3.142-2.537-5.694-5.68-5.7c0,0,0,0,0,0C27.642,0.82,27.632,0.82,27.632,0.82z
	 M30.692,33.52c-0.005,1.688-1.372,3.055-3.06,3.06h-15.5c-1.688-0.005-3.055-1.372-3.06-3.06v-27
	c0.005-1.688,1.372-3.055,3.06-3.06h15.5c1.688,0.005,3.055,1.372,3.06,3.06V33.52z"/>
<path style="fill:#FFFFFF;" d="M19.892,31.91c-0.862-0.006-1.564,0.688-1.57,1.55c-0.006,0.862,0.688,1.564,1.55,1.57
	c0.862,0.006,1.564-0.688,1.57-1.55v-0.02C21.442,32.604,20.748,31.91,19.892,31.91z M16.382,5.52h7c0.552,0,1,0.448,1,1v1
	c0,0.552-0.448,1-1,1l0,0h-7c-0.552,0-1-0.448-1-1v-1C15.382,5.968,15.83,5.52,16.382,5.52z"/>
</svg>
