<svg xmlns="http://www.w3.org/2000/svg" viewBox="0 0 40 40"><g data-name="Слой 2"><g data-name="Слой 1"><path style="fill:none" d="M0 0h40v40H0z"/><path d="M20 7.8a12.06 12.06 0 0 1 .28 24.12h-.34a12.13 12.13 0 0 1-5.23-1.19L8.37 32.2a.09.09 0 0 1-.09-.09l1-6.44a12.22 12.22 0 0 1-1.47-5.44 12 12 0 0 1 11.7-12.4H20Zm0 2.09h-.35a10 10 0 0 0-9.71 10.28A9.94 9.94 0 0 0 11.31 25l.18.31-.8 4.35 4.29-1 .32.16a10.17 10.17 0 0 0 4.61 1.14h.28a10 10 0 0 0-.28-20ZM15.74 14h.58c.22 0 .44 0 .66.55s.8 2.12.87 2.28a.55.55 0 0 1 0 .53 1.72 1.72 0 0 1-.31.48c-.16.18-.34.4-.47.53a.43.43 0 0 0-.18.58 9.41 9.41 0 0 0 1.62 2.15 7.45 7.45 0 0 0 2.4 1.59.72.72 0 0 0 .32.08.43.43 0 0 0 .32-.14 14.28 14.28 0 0 0 1-1.17.47.47 0 0 1 .37-.22 2 2 0 0 1 .33.09c.26.1 1.73.9 2 1.05a1.34 1.34 0 0 1 .57.38 2.66 2.66 0 0 1-.22 1.47 3.1 3.1 0 0 1-2.09 1.39H23a8.35 8.35 0 0 1-3.08-.9 12.45 12.45 0 0 1-5-4.73 5.84 5.84 0 0 1-1.19-3.16 3.3 3.3 0 0 1 1.13-2.49 1.1 1.1 0 0 1 .8-.37Z" style="fill:#fff;fill-rule:evenodd"/></g></g></svg>