<svg xmlns="http://www.w3.org/2000/svg" viewBox="0 0 16.39 16.53">
<g data-name="Слой 2">
<path d="M8.24 0a8.19 8.19 0 0 1 .19 16.38H8.2a8.2 8.2 0 0 1-3.55-.81l-4.29 1a.06.06 0 0 1-.06-.07l.7-4.38a8.3 8.3 0 0 1-1-3.69A8.19 8.19 0 0 1 8.2 0Zm0 1.42H8a6.78 6.78 0 0 0-6.57 7 6.68 6.68 0 0 0 .93 3.23l.12.21-.54 2.95 2.91-.69.22.11A6.79 6.79 0 0 0 8.2 15h.19A6.77 6.77 0 0 0 8.2 1.42ZM5.37 4.23h.39c.15 0 .3 0 .45.37s.54 1.44.59 1.55a.38.38 0 0 1 0 .36 1.15 1.15 0 0 1-.21.33c-.11.12-.23.27-.32.36a.29.29 0 0 0-.11.41 6.43 6.43 0 0 0 1.1 1.46 5.11 5.11 0 0 0 1.63 1.08.49.49 0 0 0 .22.06.3.3 0 0 0 .22-.1c.13-.13.52-.58.68-.79a.3.3 0 0 1 .25-.15.82.82 0 0 1 .22.06c.18.07 1.18.61 1.38.71s.34.17.39.26a1.86 1.86 0 0 1-.15 1 2.1 2.1 0 0 1-1.42.94h-.36a5.54 5.54 0 0 1-2.09-.61 8.44 8.44 0 0 1-3.42-3.21A4 4 0 0 1 4 6.17a2.24 2.24 0 0 1 .77-1.69.75.75 0 0 1 .54-.25Z" style="fill:#fff;fill-rule:evenodd" data-name="Слой 1"/></g></svg>